<svg version="1.1" id="Layer_1" xmlns="http://www.w3.org/2000/svg" xmlns:xlink="http://www.w3.org/1999/xlink" x="0px" y="0px"
	 width="100%" viewBox="0 0 531 532" enable-background="new 0 0 531 532" xml:space="preserve">
<path fill="#E10000" opacity="1.000000" stroke="none" 
	d="
M532.000000,188.000000 
	C532.000000,303.306335 532.000000,418.112671 532.000000,532.919006 
	C531.860352,532.945984 531.720764,532.996704 531.581116,532.996704 
	C354.789368,533.000061 177.997620,533.000000 1.102933,533.000000 
	C1.102933,355.777039 1.102933,178.554001 1.102933,1.165480 
	C177.999878,1.165480 354.999939,1.165480 532.000000,1.165480 
	C532.000000,63.196041 532.000000,125.348022 532.000000,188.000000 
M25.157604,225.646683 
	C20.724915,252.678024 20.237402,279.807861 25.305079,306.714020 
	C39.726963,383.285156 80.661957,441.394379 149.088455,478.892181 
	C203.117584,508.500183 260.868408,515.701111 320.782135,501.308655 
	C422.488739,476.876801 496.010895,391.068298 505.148438,286.601166 
	C509.713409,234.410904 498.601318,185.482559 471.122162,140.909653 
	C436.627594,84.957382 388.009857,47.726242 323.393219,32.039043 
	C280.442139,21.611679 237.876602,23.237154 195.465347,33.951229 
	C174.730453,39.189350 155.533356,48.443821 137.302582,59.645031 
	C102.389206,81.096260 74.697601,109.681900 54.139225,144.997818 
	C39.719250,169.768982 30.238510,196.501465 25.157604,225.646683 
z"/>
<path fill="#FFFBFB" opacity="1.000000" stroke="none" 
	d="
M25.242050,225.220856 
	C30.238510,196.501465 39.719250,169.768982 54.139225,144.997818 
	C74.697601,109.681900 102.389206,81.096260 137.302582,59.645031 
	C155.533356,48.443821 174.730453,39.189350 195.465347,33.951229 
	C237.876602,23.237154 280.442139,21.611679 323.393219,32.039043 
	C388.009857,47.726242 436.627594,84.957382 471.122162,140.909653 
	C498.601318,185.482559 509.713409,234.410904 505.148438,286.601166 
	C496.010895,391.068298 422.488739,476.876801 320.782135,501.308655 
	C260.868408,515.701111 203.117584,508.500183 149.088455,478.892181 
	C80.661957,441.394379 39.726963,383.285156 25.305079,306.714020 
	C20.237402,279.807861 20.724915,252.678024 25.242050,225.220856 
M265.474731,431.994324 
	C296.663910,431.668823 325.910370,423.821503 351.895569,406.657257 
	C407.797638,369.731720 434.702271,317.312256 428.868561,250.453156 
	C423.688416,191.084793 393.172913,146.407440 340.396912,118.974319 
	C287.248291,91.347488 233.277649,92.939255 181.042694,122.479523 
	C120.684135,156.613876 88.269394,226.231430 100.226143,293.700043 
	C114.520737,374.360474 182.927811,431.952271 265.474731,431.994324 
M270.960480,51.507450 
	C270.960480,62.972569 270.960480,74.437691 270.960480,86.169426 
	C298.263245,87.465858 323.718689,94.285675 347.879761,106.810570 
	C356.042542,92.676620 363.985596,78.923126 372.100494,64.872063 
	C340.236023,47.963799 306.847290,38.966480 270.960480,37.890095 
	C270.960480,42.550766 270.960480,46.530529 270.960480,51.507450 
M436.725769,373.748627 
	C429.990662,369.852173 423.255554,365.955719 416.235931,361.894653 
	C401.568481,384.898041 382.755127,403.612183 359.925995,418.250549 
	C368.146698,432.458954 376.117279,446.235046 384.156464,460.129700 
	C414.648315,441.065521 439.057159,416.577576 458.120880,386.152344 
	C451.111328,382.068298 444.247772,378.069336 436.725769,373.748627 
M368.990356,461.710632 
	C361.947266,449.539398 354.904205,437.368134 347.828705,425.140869 
	C323.478882,438.014679 297.940247,444.421661 271.194366,445.843903 
	C271.194366,462.200653 271.194366,477.950134 271.194366,494.164062 
	C307.020203,492.901581 340.422028,483.969208 372.023956,467.085571 
	C370.960602,465.221283 370.153961,463.807037 368.990356,461.710632 
M54.895206,357.570129 
	C57.510239,363.048248 60.125267,368.526367 62.811150,374.152924 
	C77.248337,365.800354 91.013542,357.836548 104.848465,349.832428 
	C92.096107,325.520905 85.531960,300.014191 84.140602,273.181641 
	C67.840454,273.181641 52.089409,273.181641 35.853889,273.181641 
	C36.753880,302.459198 43.076855,330.233398 54.895206,357.570129 
M375.813843,86.316551 
	C370.576538,95.361092 365.339233,104.405632 359.915436,113.772217 
	C382.916534,128.384354 401.639984,147.209549 416.256195,170.109528 
	C430.435364,161.905838 444.210907,153.935669 458.147552,145.872284 
	C439.072968,115.403175 414.585999,90.977760 384.209137,71.870422 
	C381.478210,76.528648 378.803192,81.091537 375.813843,86.316551 
M212.252350,488.288147 
	C226.824234,491.685608 241.552155,493.808411 256.795593,494.090454 
	C256.795593,477.825470 256.795593,461.939453 256.795593,445.778351 
	C229.727341,444.529907 204.304337,437.691528 180.128799,425.189453 
	C172.000000,439.257721 164.063843,452.992645 155.946869,467.040466 
	C173.773849,476.633423 192.126160,483.616455 212.252350,488.288147 
M96.301956,177.170563 
	C85.276680,170.825256 74.251404,164.479935 62.886093,157.938934 
	C46.048023,189.788376 36.958920,223.123611 35.861183,258.676208 
	C52.350681,258.676208 68.207932,258.676208 84.219322,258.676208 
	C85.511078,231.594727 92.271706,206.288193 104.773972,182.188828 
	C102.026794,180.575867 99.474014,179.077042 96.301956,177.170563 
M80.549316,401.921936 
	C97.953491,425.178894 118.862473,444.600586 143.880264,460.104370 
	C151.993668,446.066284 159.954453,432.292267 167.538834,419.169525 
	C157.179138,410.420959 146.428726,402.481262 137.086258,393.134247 
	C127.644447,383.687836 119.597580,372.847137 110.823357,362.479797 
	C97.551987,370.140472 83.768944,378.096497 69.719681,386.206207 
	C73.356010,391.509949 76.731186,396.432770 80.549316,401.921936 
M138.054306,137.552780 
	C147.845825,129.371582 157.637344,121.190384 167.577255,112.885208 
	C159.905792,99.616859 151.938370,85.836624 143.859238,71.863182 
	C113.370979,90.966125 88.847588,115.399933 69.853355,145.889725 
	C84.042625,154.065857 97.796112,161.990891 110.762695,169.462494 
	C119.903839,158.744705 128.728058,148.398514 138.054306,137.552780 
M257.039337,49.515450 
	C257.039337,45.733452 257.039337,41.951454 257.039337,37.779812 
	C220.892487,39.142708 187.449188,48.033672 155.916595,64.943192 
	C164.206421,79.260597 172.178284,93.028816 180.166931,106.826057 
	C204.459488,94.134842 229.852127,87.537750 257.039337,86.159843 
	C257.039337,74.105576 257.039337,62.307678 257.039337,49.515450 
M461.081604,160.249725 
	C448.466248,167.547882 435.850891,174.846039 424.160645,181.609024 
	C428.893555,194.736694 434.236450,206.975266 437.642517,219.731003 
	C441.037964,232.446823 442.491180,245.681229 444.788727,258.647766 
	C460.271637,258.647766 476.133301,258.647766 492.173035,258.647766 
	C490.829071,222.857300 482.026672,189.527161 465.131897,158.024307 
	C463.754333,158.796509 462.770325,159.348083 461.081604,160.249725 
M430.437958,354.043640 
	C441.888458,360.638733 453.338959,367.233826 465.112427,374.014954 
	C481.990540,342.167419 490.987244,308.820221 492.135315,273.154266 
	C475.700836,273.154266 459.938416,273.154266 443.796661,273.154266 
	C442.482849,300.151581 435.842468,325.631073 423.203278,349.807007 
	C425.538879,351.187744 427.658600,352.440887 430.437958,354.043640 
z"/>
<path fill="#E10101" opacity="1.000000" stroke="none" 
	d="
M264.982910,431.994354 
	C182.927811,431.952271 114.520737,374.360474 100.226143,293.700043 
	C88.269394,226.231430 120.684135,156.613876 181.042694,122.479523 
	C233.277649,92.939255 287.248291,91.347488 340.396912,118.974319 
	C393.172913,146.407440 423.688416,191.084793 428.868561,250.453156 
	C434.702271,317.312256 407.797638,369.731720 351.895569,406.657257 
	C325.910370,423.821503 296.663910,431.668823 264.982910,431.994354 
M246.919800,162.423386 
	C236.608841,174.142242 237.522583,188.196365 249.043228,198.646561 
	C250.400940,199.878113 251.362000,202.203186 251.442245,204.067200 
	C251.713623,210.370743 251.492172,216.694901 251.484207,223.011215 
	C251.472122,232.601730 251.481049,242.192261 251.481049,251.757095 
	C234.048264,251.757095 217.216827,251.757095 199.652313,251.757095 
	C213.255585,237.674683 226.310562,224.159866 239.240341,210.774673 
	C230.469193,210.774673 221.163330,210.707382 211.860733,210.851425 
	C210.551804,210.871704 208.949875,211.612900 208.004395,212.547379 
	C190.604507,229.744446 173.284058,247.021881 156.036346,264.193146 
	C156.418198,264.889709 156.520203,265.237518 156.744995,265.462799 
	C173.807785,282.562836 190.873367,299.660126 207.974106,316.722168 
	C208.760712,317.507019 209.862930,318.487305 210.829971,318.500366 
	C220.578140,318.632050 230.328781,318.580597 240.153824,318.580597 
	C226.752472,304.575439 213.710831,290.946198 200.687683,277.336304 
	C217.276093,277.336304 234.147675,277.336304 251.020493,277.336304 
	C251.206787,278.030701 251.438858,278.496033 251.441284,278.962524 
	C251.527985,295.607880 251.671249,312.253998 251.536530,328.897827 
	C251.523544,330.501190 250.091721,332.461487 248.765884,333.627777 
	C237.822144,343.254608 236.757950,358.950073 246.509933,369.132355 
	C256.083344,379.128174 271.680481,379.216553 281.339050,369.329712 
	C291.192047,359.243744 290.228333,343.503937 279.473969,333.735657 
	C277.812561,332.226624 276.590576,329.354584 276.547607,327.086700 
	C276.282806,313.111725 276.414490,299.129211 276.414337,285.149231 
	C276.414337,282.538910 276.414368,279.928589 276.414368,277.469330 
	C293.961121,277.469330 310.815399,277.469330 326.991882,277.469330 
	C314.111938,291.018311 301.092163,304.714386 287.873535,318.619659 
	C296.519623,318.619659 305.283783,318.821625 314.027191,318.485291 
	C316.369659,318.395172 319.186584,317.219482 320.869568,315.593781 
	C331.413544,305.408752 341.695953,294.953003 352.069550,284.591492 
	C358.659058,278.009583 365.256622,271.435699 372.163757,264.545807 
	C354.445374,246.894791 337.001678,229.504196 319.518860,212.153015 
	C318.866943,211.506012 317.838043,210.865707 316.978882,210.857697 
	C307.238190,210.766830 297.496338,210.800064 287.572754,210.800064 
	C301.024078,224.719177 314.107391,238.257462 327.218658,251.824677 
	C310.503357,251.824677 293.655914,251.824677 276.325348,251.824677 
	C276.325348,235.231628 276.268799,218.947906 276.430542,202.666351 
	C276.443756,201.335236 277.683350,199.721161 278.796051,198.741852 
	C289.664276,189.176010 291.313507,174.424011 282.560486,164.026031 
	C273.542297,153.313034 258.754547,152.434860 246.919800,162.423386 
z"/>
<path fill="#E10202" opacity="1.000000" stroke="none" 
	d="
M270.960480,51.008873 
	C270.960480,46.530529 270.960480,42.550766 270.960480,37.890095 
	C306.847290,38.966480 340.236023,47.963799 372.100494,64.872063 
	C363.985596,78.923126 356.042542,92.676620 347.879761,106.810570 
	C323.718689,94.285675 298.263245,87.465858 270.960480,86.169426 
	C270.960480,74.437691 270.960480,62.972569 270.960480,51.008873 
z"/>
<path fill="#E10202" opacity="1.000000" stroke="none" 
	d="
M437.054993,373.909485 
	C444.247772,378.069336 451.111328,382.068298 458.120880,386.152344 
	C439.057159,416.577576 414.648315,441.065521 384.156464,460.129700 
	C376.117279,446.235046 368.146698,432.458954 359.925995,418.250549 
	C382.755127,403.612183 401.568481,384.898041 416.235931,361.894653 
	C423.255554,365.955719 429.990662,369.852173 437.054993,373.909485 
z"/>
<path fill="#E10202" opacity="1.000000" stroke="none" 
	d="
M369.168823,462.051697 
	C370.153961,463.807037 370.960602,465.221283 372.023956,467.085571 
	C340.422028,483.969208 307.020203,492.901581 271.194366,494.164062 
	C271.194366,477.950134 271.194366,462.200653 271.194366,445.843903 
	C297.940247,444.421661 323.478882,438.014679 347.828705,425.140869 
	C354.904205,437.368134 361.947266,449.539398 369.168823,462.051697 
z"/>
<path fill="#E10202" opacity="1.000000" stroke="none" 
	d="
M54.739136,357.222534 
	C43.076855,330.233398 36.753880,302.459198 35.853889,273.181641 
	C52.089409,273.181641 67.840454,273.181641 84.140602,273.181641 
	C85.531960,300.014191 92.096107,325.520905 104.848465,349.832428 
	C91.013542,357.836548 77.248337,365.800354 62.811150,374.152924 
	C60.125267,368.526367 57.510239,363.048248 54.739136,357.222534 
z"/>
<path fill="#E10202" opacity="1.000000" stroke="none" 
	d="
M375.971008,85.985489 
	C378.803192,81.091537 381.478210,76.528648 384.209137,71.870422 
	C414.585999,90.977760 439.072968,115.403175 458.147552,145.872284 
	C444.210907,153.935669 430.435364,161.905838 416.256195,170.109528 
	C401.639984,147.209549 382.916534,128.384354 359.915436,113.772217 
	C365.339233,104.405632 370.576538,95.361092 375.971008,85.985489 
z"/>
<path fill="#E10202" opacity="1.000000" stroke="none" 
	d="
M211.845642,488.197510 
	C192.126160,483.616455 173.773849,476.633423 155.946869,467.040466 
	C164.063843,452.992645 172.000000,439.257721 180.128799,425.189453 
	C204.304337,437.691528 229.727341,444.529907 256.795593,445.778351 
	C256.795593,461.939453 256.795593,477.825470 256.795593,494.090454 
	C241.552155,493.808411 226.824234,491.685608 211.845642,488.197510 
z"/>
<path fill="#E10202" opacity="1.000000" stroke="none" 
	d="
M96.611588,177.374390 
	C99.474014,179.077042 102.026794,180.575867 104.773972,182.188828 
	C92.271706,206.288193 85.511078,231.594727 84.219322,258.676208 
	C68.207932,258.676208 52.350681,258.676208 35.861183,258.676208 
	C36.958920,223.123611 46.048023,189.788376 62.886093,157.938934 
	C74.251404,164.479935 85.276680,170.825256 96.611588,177.374390 
z"/>
<path fill="#E10202" opacity="1.000000" stroke="none" 
	d="
M80.327843,401.638794 
	C76.731186,396.432770 73.356010,391.509949 69.719681,386.206207 
	C83.768944,378.096497 97.551987,370.140472 110.823357,362.479797 
	C119.597580,372.847137 127.644447,383.687836 137.086258,393.134247 
	C146.428726,402.481262 157.179138,410.420959 167.538834,419.169525 
	C159.954453,432.292267 151.993668,446.066284 143.880264,460.104370 
	C118.862473,444.600586 97.953491,425.178894 80.327843,401.638794 
z"/>
<path fill="#E10202" opacity="1.000000" stroke="none" 
	d="
M137.803284,137.802551 
	C128.728058,148.398514 119.903839,158.744705 110.762695,169.462494 
	C97.796112,161.990891 84.042625,154.065857 69.853355,145.889725 
	C88.847588,115.399933 113.370979,90.966125 143.859238,71.863182 
	C151.938370,85.836624 159.905792,99.616859 167.577255,112.885208 
	C157.637344,121.190384 147.845825,129.371582 137.803284,137.802551 
z"/>
<path fill="#E10202" opacity="1.000000" stroke="none" 
	d="
M257.039337,50.012615 
	C257.039337,62.307678 257.039337,74.105576 257.039337,86.159843 
	C229.852127,87.537750 204.459488,94.134842 180.166931,106.826057 
	C172.178284,93.028816 164.206421,79.260597 155.916595,64.943192 
	C187.449188,48.033672 220.892487,39.142708 257.039337,37.779812 
	C257.039337,41.951454 257.039337,45.733452 257.039337,50.012615 
z"/>
<path fill="#E10202" opacity="1.000000" stroke="none" 
	d="
M461.433960,160.074707 
	C462.770325,159.348083 463.754333,158.796509 465.131897,158.024307 
	C482.026672,189.527161 490.829071,222.857300 492.173035,258.647766 
	C476.133301,258.647766 460.271637,258.647766 444.788727,258.647766 
	C442.491180,245.681229 441.037964,232.446823 437.642517,219.731003 
	C434.236450,206.975266 428.893555,194.736694 424.160645,181.609024 
	C435.850891,174.846039 448.466248,167.547882 461.433960,160.074707 
z"/>
<path fill="#E10202" opacity="1.000000" stroke="none" 
	d="
M430.108154,353.868835 
	C427.658600,352.440887 425.538879,351.187744 423.203278,349.807007 
	C435.842468,325.631073 442.482849,300.151581 443.796661,273.154266 
	C459.938416,273.154266 475.700836,273.154266 492.135315,273.154266 
	C490.987244,308.820221 481.990540,342.167419 465.112427,374.014954 
	C453.338959,367.233826 441.888458,360.638733 430.108154,353.868835 
z"/>
<path fill="#FFFCFC" opacity="1.000000" stroke="none" 
	d="
M247.184906,162.182190 
	C258.754547,152.434860 273.542297,153.313034 282.560486,164.026031 
	C291.313507,174.424011 289.664276,189.176010 278.796051,198.741852 
	C277.683350,199.721161 276.443756,201.335236 276.430542,202.666351 
	C276.268799,218.947906 276.325348,235.231628 276.325348,251.824677 
	C293.655914,251.824677 310.503357,251.824677 327.218658,251.824677 
	C314.107391,238.257462 301.024078,224.719177 287.572754,210.800064 
	C297.496338,210.800064 307.238190,210.766830 316.978882,210.857697 
	C317.838043,210.865707 318.866943,211.506012 319.518860,212.153015 
	C337.001678,229.504196 354.445374,246.894791 372.163757,264.545807 
	C365.256622,271.435699 358.659058,278.009583 352.069550,284.591492 
	C341.695953,294.953003 331.413544,305.408752 320.869568,315.593781 
	C319.186584,317.219482 316.369659,318.395172 314.027191,318.485291 
	C305.283783,318.821625 296.519623,318.619659 287.873535,318.619659 
	C301.092163,304.714386 314.111938,291.018311 326.991882,277.469330 
	C310.815399,277.469330 293.961121,277.469330 276.414368,277.469330 
	C276.414368,279.928589 276.414337,282.538910 276.414337,285.149231 
	C276.414490,299.129211 276.282806,313.111725 276.547607,327.086700 
	C276.590576,329.354584 277.812561,332.226624 279.473969,333.735657 
	C290.228333,343.503937 291.192047,359.243744 281.339050,369.329712 
	C271.680481,379.216553 256.083344,379.128174 246.509933,369.132355 
	C236.757950,358.950073 237.822144,343.254608 248.765884,333.627777 
	C250.091721,332.461487 251.523544,330.501190 251.536530,328.897827 
	C251.671249,312.253998 251.527985,295.607880 251.441284,278.962524 
	C251.438858,278.496033 251.206787,278.030701 251.020493,277.336304 
	C234.147675,277.336304 217.276093,277.336304 200.687683,277.336304 
	C213.710831,290.946198 226.752472,304.575439 240.153824,318.580597 
	C230.328781,318.580597 220.578140,318.632050 210.829971,318.500366 
	C209.862930,318.487305 208.760712,317.507019 207.974106,316.722168 
	C190.873367,299.660126 173.807785,282.562836 156.744995,265.462799 
	C156.520203,265.237518 156.418198,264.889709 156.036346,264.193146 
	C173.284058,247.021881 190.604507,229.744446 208.004395,212.547379 
	C208.949875,211.612900 210.551804,210.871704 211.860733,210.851425 
	C221.163330,210.707382 230.469193,210.774673 239.240341,210.774673 
	C226.310562,224.159866 213.255585,237.674683 199.652313,251.757095 
	C217.216827,251.757095 234.048264,251.757095 251.481049,251.757095 
	C251.481049,242.192261 251.472122,232.601730 251.484207,223.011215 
	C251.492172,216.694901 251.713623,210.370743 251.442245,204.067200 
	C251.362000,202.203186 250.400940,199.878113 249.043228,198.646561 
	C237.522583,188.196365 236.608841,174.142242 247.184906,162.182190 
M273.554840,183.531387 
	C276.898529,174.009796 268.302673,167.871460 261.959778,169.306274 
	C257.335846,170.352249 254.049042,174.114944 253.757370,178.740341 
	C253.449341,183.625534 255.962387,187.518570 260.507385,189.197006 
	C265.382111,190.997223 269.474365,189.391113 273.554840,183.531387 
M274.214294,351.664337 
	C274.080811,344.798737 266.553131,340.968201 261.529236,342.390961 
	C256.242859,343.888062 253.077087,348.597198 253.851654,354.135590 
	C254.532928,359.007050 258.859009,362.808746 263.820618,362.896240 
	C269.471863,362.995850 273.388062,359.099945 274.214294,351.664337 
z"/>
<path fill="#E20707" opacity="1.000000" stroke="none" 
	d="
M273.357330,183.881317 
	C269.474365,189.391113 265.382111,190.997223 260.507385,189.197006 
	C255.962387,187.518570 253.449341,183.625534 253.757370,178.740341 
	C254.049042,174.114944 257.335846,170.352249 261.959778,169.306274 
	C268.302673,167.871460 276.898529,174.009796 273.357330,183.881317 
z"/>
<path fill="#E20707" opacity="1.000000" stroke="none" 
	d="
M274.242950,352.081879 
	C273.388062,359.099945 269.471863,362.995850 263.820618,362.896240 
	C258.859009,362.808746 254.532928,359.007050 253.851654,354.135590 
	C253.077087,348.597198 256.242859,343.888062 261.529236,342.390961 
	C266.553131,340.968201 274.080811,344.798737 274.242950,352.081879 
z"/>
</svg>